<?xml version="1.0" encoding="UTF-8" standalone="no"?>
<svg
   version="1.1"
   x="0"
   y="0"
   viewBox="0 0 1024 1024"
   xml:space="preserve"
   id="svg8"
   width="1024"
   height="1024"
   sodipodi:docname="icon_maskable.svg"
   inkscape:version="1.1 (c4e8f9ed74, 2021-05-24)"
   xmlns:inkscape="http://www.inkscape.org/namespaces/inkscape"
   xmlns:sodipodi="http://sodipodi.sourceforge.net/DTD/sodipodi-0.dtd"
   xmlns="http://www.w3.org/2000/svg"
   xmlns:svg="http://www.w3.org/2000/svg"
   xmlns:rdf="http://www.w3.org/1999/02/22-rdf-syntax-ns#"
   xmlns:cc="http://creativecommons.org/ns#"
   xmlns:d="https://loading.io/stock/"><sodipodi:namedview
     id="namedview7"
     pagecolor="#505050"
     bordercolor="#ffffff"
     borderopacity="1"
     inkscape:pageshadow="0"
     inkscape:pageopacity="0"
     inkscape:pagecheckerboard="1"
     showgrid="false"
     inkscape:zoom="0.7578125"
     inkscape:cx="511.34021"
     inkscape:cy="512"
     inkscape:window-width="1920"
     inkscape:window-height="1011"
     inkscape:window-x="0"
     inkscape:window-y="0"
     inkscape:window-maximized="1"
     inkscape:current-layer="svg8" /><defs
     id="defs12" /><metadata
     id="metadata6"><d:name>paper clip</d:name><d:tags>paper clip,paper fastener,gem clip,office clip,stationery</d:tags><d:license>by</d:license><d:slug>esdu8j</d:slug><rdf:RDF><cc:Work
         rdf:about="" /></rdf:RDF></metadata><rect
     style="fill:#333333;stroke-width:2.87211"
     id="rect668"
     width="1026"
     height="1024"
     x="0"
     y="0" /><path
     d="M 328.45545,609.07361 491.4496,326.57199 c 30.20262,-52.35923 97.10842,-70.29266 149.43297,-40.07002 v 0 c 52.32453,30.22264 70.24609,97.1728 40.04347,149.53202 l -156.90362,271.9337 a 88.337665,88.396217 0 0 1 -120.67047,32.35424 88.337665,88.396217 0 0 1 -32.3328,-120.75046 l 142.9724,-247.80563 7.50066,-13.00974 a 50.334367,50.36773 0 0 1 68.75595,-18.43381 v 0 a 50.334367,50.36773 0 0 1 18.42161,68.80154 L 460.24689,666.37654"
     fill="none"
     stroke="#ffffff"
     stroke-width="23.0096"
     stroke-linecap="round"
     stroke-miterlimit="10"
     id="path4" /></svg>
