<?xml version="1.0" encoding="UTF-8" standalone="no"?>
<svg
   version="1.1"
   x="0"
   y="0"
   viewBox="0 0 1024 1024"
   xml:space="preserve"
   id="svg8"
   width="1024"
   height="1024"
   xmlns="http://www.w3.org/2000/svg"
   xmlns:svg="http://www.w3.org/2000/svg"
   xmlns:rdf="http://www.w3.org/1999/02/22-rdf-syntax-ns#"
   xmlns:cc="http://creativecommons.org/ns#"
   xmlns:d="https://loading.io/stock/"><defs
     id="defs12" /><circle
     cx="512"
     cy="512"
     fill="#333333"
     id="circle2"
     style="stroke-width:11.25"
     r="450" /><path
     d="M 328.45545,609.07361 491.4496,326.57199 c 30.20262,-52.35923 97.10842,-70.29266 149.43297,-40.07002 v 0 c 52.32453,30.22264 70.24609,97.1728 40.04347,149.53202 l -156.90362,271.9337 a 88.337665,88.396217 0 0 1 -120.67047,32.35424 88.337665,88.396217 0 0 1 -32.3328,-120.75046 l 142.9724,-247.80563 7.50066,-13.00974 a 50.334367,50.36773 0 0 1 68.75595,-18.43381 v 0 a 50.334367,50.36773 0 0 1 18.42161,68.80154 L 460.24689,666.37654"
     fill="none"
     stroke="#ffffff"
     stroke-width="23.0096"
     stroke-linecap="round"
     stroke-miterlimit="10"
     id="path4" /><metadata
     id="metadata6"><d:name>paper clip</d:name><d:tags>paper clip,paper fastener,gem clip,office clip,stationery</d:tags><d:license>by</d:license><d:slug>esdu8j</d:slug><rdf:RDF><cc:Work
         rdf:about="" /></rdf:RDF></metadata></svg>
